<?xml version="1.0" standalone="no"?><!DOCTYPE svg PUBLIC "-//W3C//DTD SVG 1.1//EN" "http://www.w3.org/Graphics/SVG/1.1/DTD/svg11.dtd"><svg t="1740647668389" class="icon" viewBox="0 0 1024 1024" version="1.1" xmlns="http://www.w3.org/2000/svg" p-id="10577" xmlns:xlink="http://www.w3.org/1999/xlink" width="256" height="256"><path d="M838.741333 347.904c-12.586667 30.506667-29.376 62.997333-50.069333 96.533333a1233.130667 1233.130667 0 0 0-98.389333-110.72 1233.450667 1233.450667 0 0 0-110.741334-98.410666c33.536-20.693333 66.048-37.504 96.554667-50.048 43.584-17.962667 81.28-26.496 111.04-26.730667 29.568-0.213333 48.149333 7.637333 59.413333 18.901333s19.114667 29.845333 18.901334 59.413334c-0.213333 29.781333-8.746667 67.456-26.709334 111.061333z m-203.370666 40.725333A1138.517333 1138.517333 0 0 1 742.613333 512a1138.986667 1138.986667 0 0 1-107.221333 123.413333 1139.008 1139.008 0 0 1-123.392 107.2 1139.008 1139.008 0 0 1-123.392-107.2A1138.986667 1138.986667 0 0 1 281.365333 512a1138.517333 1138.517333 0 0 1 107.221334-123.392 1138.730667 1138.730667 0 0 1 123.392-107.221333 1138.730667 1138.730667 0 0 1 123.392 107.242666z m54.912 301.696a1233.173333 1233.173333 0 0 0 98.389333-110.762666c20.693333 33.536 37.504 66.048 50.069333 96.554666 17.962667 43.605333 26.496 81.28 26.709334 111.061334 0.213333 29.568-7.616 48.149333-18.88 59.413333s-29.866667 19.114667-59.434667 18.901333c-29.76-0.213333-67.434667-8.746667-111.04-26.709333-30.506667-12.586667-63.018667-29.376-96.554667-50.090667a1233.173333 1233.173333 0 0 0 110.72-98.368z m-43.733334 220.266667c49.194667 20.266667 97.066667 32.213333 140.010667 32.554667 43.157333 0.32 84.522667-11.242667 114.922667-41.642667 30.378667-30.4 41.962667-71.765333 41.621333-114.922667-0.32-42.944-12.288-90.794667-32.554667-140.010666-17.706667-43.008-42.325333-88.448-72.96-134.570667 30.634667-46.08 55.253333-91.541333 72.96-134.528 20.266667-49.237333 32.213333-97.066667 32.554667-140.032 0.32-43.157333-11.242667-84.522667-41.642667-114.922667-30.4-30.4-71.765333-41.962667-114.901333-41.642666-42.965333 0.32-90.816 12.309333-140.032 32.576-42.986667 17.706667-88.448 42.304-134.549333 72.96-46.101333-30.656-91.562667-55.253333-134.549334-72.96-49.216-20.266667-97.066667-32.256-140.032-32.576-43.157333-0.32-84.522667 11.242667-114.901333 41.642666C92.096 152.917333 80.533333 194.282667 80.853333 237.44c0.32 42.965333 12.288 90.794667 32.554667 140.010667C131.114667 420.48 155.733333 465.92 186.368 512c-30.656 46.122667-55.253333 91.562667-72.96 134.570667-20.266667 49.216-32.256 97.066667-32.576 140.010666-0.32 43.157333 11.264 84.522667 41.642667 114.922667 30.4 30.4 71.765333 41.962667 114.922666 41.642667 42.965333-0.32 90.794667-12.309333 140.032-32.554667 42.986667-17.706667 88.448-42.325333 134.549334-72.96 46.101333 30.634667 91.562667 55.253333 134.549333 72.96zM333.653333 690.325333a1233.173333 1233.173333 0 0 0 110.741334 98.368c-33.536 20.714667-66.048 37.525333-96.554667 50.090667-43.605333 17.941333-81.28 26.496-111.061333 26.709333-29.568 0.213333-48.149333-7.637333-59.413334-18.901333s-19.114667-29.845333-18.901333-59.413333c0.213333-29.781333 8.768-67.456 26.730667-111.061334 12.544-30.506667 29.354667-63.018667 50.069333-96.554666a1233.173333 1233.173333 0 0 0 98.389333 110.762666zM185.216 347.904c-17.941333-43.605333-26.496-81.28-26.709333-111.061333-0.213333-29.568 7.637333-48.149333 18.901333-59.413334s29.824-19.114667 59.413333-18.901333c29.76 0.213333 67.456 8.768 111.04 26.730667 30.506667 12.544 63.018667 29.354667 96.554667 50.069333a1233.450667 1233.450667 0 0 0-110.741333 98.389333 1233.130667 1233.130667 0 0 0-98.389334 110.72c-20.693333-33.536-37.504-66.026667-50.069333-96.533333zM512 586.666667a74.666667 74.666667 0 1 1 0-149.333334 74.666667 74.666667 0 0 1 0 149.333334z" p-id="10578"></path></svg>